<mxfile host="65bd71144e">
    <diagram id="yHeRXRinQ7M16kkupZFc" name="Main Page">
        <mxGraphModel dx="734" dy="430" grid="1" gridSize="10" guides="1" tooltips="1" connect="1" arrows="1" fold="1" page="1" pageScale="1" pageWidth="850" pageHeight="1100" math="0" shadow="0">
            <root>
                <mxCell id="0"/>
                <mxCell id="1" parent="0"/>
                <mxCell id="2" value="&lt;br&gt;AuxNudge&lt;br&gt;Search for songs you want to play" style="whiteSpace=wrap;html=1;" vertex="1" parent="1">
                    <mxGeometry width="720" height="160" as="geometry"/>
                </mxCell>
                <mxCell id="4" value="Enter Text Here" style="whiteSpace=wrap;html=1;" vertex="1" parent="1">
                    <mxGeometry y="210" width="210" height="30" as="geometry"/>
                </mxCell>
                <mxCell id="5" value="Search Lyrics" style="whiteSpace=wrap;html=1;fillColor=#1ba1e2;fontColor=#ffffff;strokeColor=#006EAF;" vertex="1" parent="1">
                    <mxGeometry x="210" y="210" width="100" height="30" as="geometry"/>
                </mxCell>
                <mxCell id="6" value="Don't know what to search? Generate a random lyric" style="whiteSpace=wrap;html=1;" vertex="1" parent="1">
                    <mxGeometry y="270" width="310" height="30" as="geometry"/>
                </mxCell>
                <mxCell id="7" value="Generate Random Word to Search" style="whiteSpace=wrap;html=1;fillColor=#1ba1e2;fontColor=#ffffff;strokeColor=#006EAF;" vertex="1" parent="1">
                    <mxGeometry x="70" y="300" width="160" height="40" as="geometry"/>
                </mxCell>
                <mxCell id="8" value="Program Description and Instructions" style="whiteSpace=wrap;html=1;" vertex="1" parent="1">
                    <mxGeometry y="160" width="720" height="50" as="geometry"/>
                </mxCell>
                <mxCell id="9" value="Modal Pop-Up for additional search criteria" style="whiteSpace=wrap;html=1;fillColor=#60a917;fontColor=#ffffff;strokeColor=#2D7600;" vertex="1" parent="1">
                    <mxGeometry x="310" y="210" width="120" height="50" as="geometry"/>
                </mxCell>
                <mxCell id="10" value="Modal Pop-Up for random word criteria (# of words, have user approve words)" style="whiteSpace=wrap;html=1;fillColor=#60a917;fontColor=#ffffff;strokeColor=#2D7600;" vertex="1" parent="1">
                    <mxGeometry x="230" y="300" width="120" height="60" as="geometry"/>
                </mxCell>
                <mxCell id="11" value="Append random string here" style="whiteSpace=wrap;html=1;" vertex="1" parent="1">
                    <mxGeometry x="20" y="450" width="270" height="60" as="geometry"/>
                </mxCell>
                <mxCell id="12" value="" style="whiteSpace=wrap;html=1;" vertex="1" parent="1">
                    <mxGeometry x="370" y="280" width="350" height="260" as="geometry"/>
                </mxCell>
                <mxCell id="13" value="Song Name, Artist&amp;nbsp; &amp;lt;href Linked to YouTube search&amp;gt;" style="whiteSpace=wrap;html=1;fillColor=#6a00ff;fontColor=#ffffff;strokeColor=#3700CC;" vertex="1" parent="1">
                    <mxGeometry x="380" y="290" width="330" height="40" as="geometry"/>
                </mxCell>
                <mxCell id="14" value="Song Name, Artist --- Linked to YouTube search" style="whiteSpace=wrap;html=1;fillColor=#6a00ff;fontColor=#ffffff;strokeColor=#3700CC;" vertex="1" parent="1">
                    <mxGeometry x="380" y="340" width="330" height="40" as="geometry"/>
                </mxCell>
                <mxCell id="15" value="Song Name, Artist --- Linked to YouTube search" style="whiteSpace=wrap;html=1;fillColor=#6a00ff;fontColor=#ffffff;strokeColor=#3700CC;" vertex="1" parent="1">
                    <mxGeometry x="380" y="390" width="330" height="40" as="geometry"/>
                </mxCell>
                <mxCell id="16" value="Song Name, Artist --- Linked to YouTube search" style="whiteSpace=wrap;html=1;fillColor=#6a00ff;fontColor=#ffffff;strokeColor=#3700CC;" vertex="1" parent="1">
                    <mxGeometry x="380" y="440" width="330" height="40" as="geometry"/>
                </mxCell>
                <mxCell id="17" value="Song Name, Artist --- Linked to YouTube search" style="whiteSpace=wrap;html=1;fillColor=#6a00ff;fontColor=#ffffff;strokeColor=#3700CC;" vertex="1" parent="1">
                    <mxGeometry x="380" y="490" width="330" height="40" as="geometry"/>
                </mxCell>
            </root>
        </mxGraphModel>
    </diagram>
</mxfile>